<svg width="10" height="13" viewBox="0 0 10 13" fill="none" xmlns="http://www.w3.org/2000/svg">
<path d="M9.01582 5.49695C9.61705 6.35585 9.83178 7.51536 9.70294 8.63193C9.35938 11.2516 6.91152 13.0982 4.24894 12.7546C1.58635 12.4111 -0.303227 9.96322 0.0403325 7.34358C0.169167 6.52763 0.469782 5.75462 0.942176 5.11045C0.942176 5.11045 0.813341 7.55831 2.27347 7.73009C2.91764 7.81598 3.47593 7.38653 3.56182 6.74235C3.60476 6.44174 3.51887 6.09818 3.34709 5.88346C2.0158 4.12271 2.14463 3.30676 2.18758 2.79142C2.53114 0.34356 4.979 0 4.979 0C4.72133 0.730064 4.59249 2.49081 6.31029 3.3497C8.02809 4.2086 8.54343 4.80983 9.01582 5.49695Z" fill="#86939E"/>
</svg>
