<svg width="66" height="86" viewBox="0 0 66 86" fill="none" xmlns="http://www.w3.org/2000/svg">
<path d="M60.4512 36.8571C64.4824 42.616 65.9221 50.3906 65.0583 57.8772C62.7547 75.4419 46.3418 87.8236 28.4892 85.52C10.6365 83.2164 -2.03314 66.8035 0.27043 49.2388C1.13427 43.7678 3.14989 38.5848 6.3173 34.2656C6.3173 34.2656 5.45346 50.6785 15.2436 51.8303C19.5628 52.4062 23.3061 49.5267 23.882 45.2075C24.17 43.1919 23.5941 40.8884 22.4423 39.4486C13.516 27.6428 14.3798 22.1719 14.6677 18.7165C16.9713 2.30357 33.3842 0 33.3842 0C31.6566 4.89508 30.7927 16.7009 42.3106 22.4598C53.8284 28.2187 57.2838 32.25 60.4512 36.8571Z" fill="white"/>
</svg>
