<svg width="136" height="30" viewBox="0 0 136 30" fill="none" xmlns="http://www.w3.org/2000/svg">
<path d="M20.9939 12.8C22.3939 14.8 22.8939 17.5 22.5939 20.1C21.7939 26.2 16.0939 30.5 9.89392 29.7C3.69392 28.9 -0.706083 23.2 0.0939168 17.1C0.393917 15.2 1.09392 13.4 2.19392 11.9C2.19392 11.9 1.89392 17.6 5.29392 18C6.79392 18.2 8.09392 17.2 8.29392 15.7C8.39392 15 8.19392 14.2 7.79392 13.7C4.69392 9.6 4.99392 7.7 5.09392 6.5C5.89392 0.8 11.5939 0 11.5939 0C10.9939 1.7 10.6939 5.8 14.6939 7.8C18.6939 9.8 19.8939 11.2 20.9939 12.8Z" fill="#FF6436"/>
<path fill-rule="evenodd" clip-rule="evenodd" d="M109.394 14.1C108.694 14.1 107.994 13.5 107.994 12.7C107.994 11.9 108.594 11.3 109.394 11.3C110.194 11.3 110.794 11.9 110.794 12.7C110.794 13.5 110.194 14.1 109.394 14.1ZM40.3939 23.8H37.7939V18.7H32.0939V23.8H29.4939V11.7H32.0939V16.5H37.7939V11.7H40.3939V23.8ZM42.6939 27.2L42.9939 25.1C43.1939 25.2 43.4939 25.2 43.6939 25.2C44.2939 25.2 44.6939 25 44.8939 24.6L45.1939 23.9L41.7939 15H44.2939L46.5939 21.1L48.8939 15H51.3939L47.2939 25.2C46.5939 26.9 45.4939 27.3 43.9939 27.3C43.5939 27.3 42.9939 27.3 42.6939 27.2ZM54.9939 22.7C55.6939 23.6 56.6939 24 57.6939 24C59.8939 24 61.5939 22.3 61.5939 19.4C61.5939 16.5 59.8939 14.8 57.6939 14.8C56.5939 14.8 55.6939 15.2 54.9939 16.1V15H52.6939V27.2H54.9939V22.7ZM56.9939 21.9C58.2939 21.9 59.1939 20.9 59.1939 19.3C59.1939 17.8 58.2939 16.8 56.9939 16.8C56.2939 16.8 55.3939 17.2 54.9939 17.8V20.9C55.3939 21.5 56.1939 21.9 56.9939 21.9ZM62.9939 19.4C62.9939 22.2 64.9939 24 67.6939 24C69.0939 24 70.3939 23.6 71.1939 22.7L70.1939 21.2C69.6939 21.8 68.5939 22.1 67.8939 22.1C66.3939 22.1 65.4939 21.2 65.3939 20.1H71.8939V19.6C71.8939 16.8 70.0939 14.8 67.4939 14.8C64.8939 14.8 62.9939 16.9 62.9939 19.4ZM69.6939 18.6C69.5939 17.8 69.0939 16.7 67.4939 16.7C66.0939 16.7 65.4939 17.8 65.2939 18.6H69.6939ZM82.3939 23.8H85.2939L80.6939 11.7H77.4939L72.7939 23.8H75.6939L76.4939 21.8H81.6939L82.3939 23.8ZM80.8939 19.5L78.9939 14.3L77.0939 19.5H80.8939ZM92.3939 23.8H94.6939V15H92.3939V20.9C91.9939 21.4 91.2939 21.9 90.3939 21.9C89.3939 21.9 88.7939 21.5 88.7939 20.3V15H86.4939V21.2C86.4939 22.9 87.3939 24 89.2939 24C90.6939 24 91.7939 23.4 92.3939 22.7V23.8ZM105.594 23.8H103.294V22.7C102.594 23.6 101.594 24 100.594 24C98.3939 24 96.6939 22.3 96.6939 19.4C96.6939 16.5 98.3939 14.8 100.594 14.8C101.594 14.8 102.594 15.3 103.294 16.1V11.7H105.594V23.8ZM103.294 20.9C102.894 21.5 102.094 21.9 101.294 21.9C99.9939 21.9 99.0939 20.9 99.0939 19.4C99.0939 17.8 99.9939 16.8 101.294 16.8C102.094 16.8 102.894 17.2 103.294 17.8V20.9ZM108.294 23.8H110.594V15H108.294V23.8ZM116.094 24C114.494 24 113.594 23.2 113.594 21.6V17H112.094V15H113.594V12.6H115.894V15H117.694V17H115.894V21C115.894 21.5 116.194 22 116.694 22C116.994 22 117.394 21.9 117.494 21.7L117.994 23.4C117.694 23.7 117.094 24 116.094 24ZM119.094 19.4C119.094 21.9 120.794 24 123.694 24C126.594 24 128.394 21.9 128.294 19.4C128.294 16.9 126.594 14.8 123.694 14.8C120.794 14.8 119.094 16.9 119.094 19.4ZM123.694 21.9C125.094 21.9 125.894 20.7 125.894 19.3C125.894 17.9 125.094 16.8 123.694 16.8C122.294 16.8 121.494 18 121.494 19.3C121.494 20.8 122.294 21.9 123.694 21.9ZM130.394 23.8H132.694V17.9C133.094 17.3 134.094 16.9 134.894 16.9C134.994 16.9 135.094 16.925 135.194 16.95C135.294 16.975 135.394 17 135.494 17V14.8C134.394 14.8 133.294 15.4 132.694 16.2V15H130.394V23.8Z" fill="#292A2B"/>
</svg>
