<svg xmlns="http://www.w3.org/2000/svg" xmlns:xlink="http://www.w3.org/1999/xlink"><symbol id="arrow-left"><path opacity=".5" d="M1.086 7.293a1 1 0 0 0 0 1.414l6.364 6.364a1 1 0 0 0 1.414-1.414L3.207 8l5.657-5.657A1 1 0 0 0 7.45.93L1.086 7.293zM41.793 7h-40v2h40V7z" fill="#97A0B2"/></symbol><symbol id="arrow-right"><path opacity=".5" d="M41.5 8.707a1 1 0 0 0 0-1.414L35.136.929a1 1 0 1 0-1.414 1.414L39.379 8l-5.657 5.657a1 1 0 0 0 1.414 1.414L41.5 8.707zM.793 9h40V7h-40v2z" fill="#97A0B2"/></symbol><symbol id="bottom"><path d="M1.5 1l4 4 4-4" stroke="#6CA3CB" stroke-width="1.5"/></symbol><symbol id="call"><path d="M30.809 17.039a6.466 6.466 0 0 0-2.254-4.903C28.208 5.41 22.567 0 15.773 0 8.988 0 3.346 5.41 3 12.137a6.465 6.465 0 0 0-2.253 4.902 6.49 6.49 0 0 0 6.483 6.484.822.822 0 0 0 .822-.823V11.378a.821.821 0 0 0-.821-.822c-.873 0-1.705.175-2.465.49.852-5.304 5.496-9.402 11.017-9.402 5.512 0 10.155 4.098 11.008 9.401a6.446 6.446 0 0 0-2.464-.49.822.822 0 0 0-.822.823V22.7c0 .455.368.823.822.823.873 0 1.706-.176 2.468-.491-.695 4.352-3.943 7.955-8.258 9.049-.495-.922-1.543-1.565-2.763-1.565-1.694 0-3.072 1.23-3.072 2.742S14.079 36 15.773 36c1.522 0 2.78-.995 3.022-2.293 5.466-1.318 9.477-6.133 9.763-11.768a6.467 6.467 0 0 0 2.25-4.9zm-24.402 4.77a4.848 4.848 0 0 1-4.016-4.77 4.847 4.847 0 0 1 4.016-4.769v9.538zm9.367 12.547c-.788 0-1.428-.493-1.428-1.098 0-.605.64-1.098 1.428-1.098.787 0 1.427.493 1.427 1.098 0 .605-.64 1.098-1.428 1.098zm9.374-22.086a4.847 4.847 0 0 1 4.017 4.769 4.848 4.848 0 0 1-4.017 4.77V12.27z" fill="#252528"/></symbol><symbol id="doc"><path d="M89.293 30h-45c-.9 0-1.5.6-1.5 1.5v57c0 .9.6 1.5 1.5 1.5h45c.9 0 1.5-.6 1.5-1.5v-57c0-.9-.6-1.5-1.5-1.5zm-1.5 3v9h-42v-3h18v-3h-18v-3h42zm-42 54V45h42v42h-42z" fill="#486479"/><path d="M57.793 48h-4.5v3h4.5v-3zM65.293 48h-4.5v3h4.5v-3zM72.793 48h-4.5v3h4.5v-3zM80.293 48h-4.5v3h4.5v-3zM56.293 55.5h-6v3h6v-3zM65.293 55.5h-6v3h6v-3zM74.293 55.5h-6v3h6v-3zM83.293 55.5h-6v3h6v-3zM56.293 61.5h-6v3h6v-3zM65.293 61.5h-6v3h6v-3zM74.293 61.5h-6v3h6v-3zM83.293 61.5h-6v3h6v-3zM56.293 67.5h-6v3h6v-3zM65.293 67.5h-6v3h6v-3zM74.293 67.5h-6v3h6v-3zM83.293 67.5h-6v3h6v-3zM56.293 73.5h-6v3h6v-3zM65.293 73.5h-6v3h6v-3zM74.293 73.5h-6v3h6v-3zM83.293 73.5h-6v3h6v-3zM56.293 79.5h-6v3h6v-3zM65.293 79.5h-6v3h6v-3zM74.293 79.5h-6v3h6v-3zM83.293 79.5h-6v3h6v-3zM3.793 21h16.5c.9 0 1.5-.6 1.5-1.5V3h51v21h3V1.5c0-.9-.6-1.5-1.5-1.5h-54c-.15 0-.3 0-.45.15h-.15c-.15.15-.3.15-.45.3l-18 18c-.15.15-.15.3-.3.45v.15c0 .15-.15.3-.15.45V36h3V21zm15-3h-12.9l12.9-12.9V18zM38.293 64.5h-16.5v-21c0-.9-.6-1.5-1.5-1.5h-18c-.9 0-1.5.6-1.5 1.5v45c0 .9.6 1.5 1.5 1.5h36c.9 0 1.5-.6 1.5-1.5V66c0-.9-.6-1.5-1.5-1.5zm-34.5 3h15V72h-15v-4.5zm15-3h-15V60h15v4.5zm0-7.5h-15v-4.5h15V57zm-15 18h15v4.5h-15V75zm18 0h15v4.5h-15V75zm15-3h-15v-4.5h15V72zm-33-27h15v4.5h-15V45zm0 37.5h15V87h-15v-4.5zm33 4.5h-15v-4.5h15V87z" fill="#486479"/><path d="M68.293 7.5h-10.5v3h10.5v-3zM68.293 15h-27v3h27v-3zM71.293 36h-4.5v3h4.5v-3z" fill="#486479"/></symbol><symbol id="icon-next"><path d="M1.207 12.314l5.657-5.657L1.207 1"/></symbol><symbol id="icon-previous"><path d="M6.864 1L1.207 6.657l5.657 5.657"/></symbol><symbol id="search"><path d="M19.227 18.926l-4.76-4.95a8.05 8.05 0 0 0 1.894-5.192c0-4.453-3.623-8.075-8.075-8.075C3.833.709.21 4.332.21 8.784c0 4.452 3.622 8.075 8.075 8.075a7.988 7.988 0 0 0 4.626-1.461l4.796 4.988c.2.208.47.323.76.323a1.055 1.055 0 0 0 .76-1.783zM8.286 2.816a5.975 5.975 0 0 1 5.968 5.968 5.975 5.975 0 0 1-5.968 5.968 5.975 5.975 0 0 1-5.969-5.968 5.975 5.975 0 0 1 5.969-5.969z" fill="#97A0B2"/></symbol><symbol id="step1"><path d="M37.54 50.86c-1.74 0-3.29-.43-4.65-1.29-1.36-.86-2.43-2.1-3.21-3.72-.76-1.64-1.14-3.59-1.14-5.85s.38-4.2 1.14-5.82c.78-1.64 1.85-2.89 3.21-3.75 1.36-.86 2.91-1.29 4.65-1.29 1.74 0 3.29.43 4.65 1.29 1.36.86 2.42 2.11 3.18 3.75.78 1.62 1.17 3.56 1.17 5.82 0 2.26-.39 4.21-1.17 5.85-.76 1.62-1.82 2.86-3.18 3.72-1.36.86-2.91 1.29-4.65 1.29zm0-4.11c1.28 0 2.28-.55 3-1.65.74-1.1 1.11-2.8 1.11-5.1s-.37-4-1.11-5.1c-.72-1.1-1.72-1.65-3-1.65-1.26 0-2.26.55-3 1.65-.72 1.1-1.08 2.8-1.08 5.1s.36 4 1.08 5.1c.74 1.1 1.74 1.65 3 1.65zM56.824 29.5v21h-4.86V33.4h-4.2v-3.9h9.06z" fill="#fff"/><path d="M5.336 40c0-20.987 17.013-38 38-38s38 17.013 38 38-17.013 38-38 38-38-17.013-38-38z" stroke="#6CA3CB" stroke-width="4"/><path d="M8.991 55.715c-4.84-10.32-4.729-21.69-.635-31.43" stroke="#fff" stroke-width="10"/></symbol><symbol id="step2"><path d="M31.366 52.861c-1.74 0-3.29-.43-4.65-1.29-1.36-.86-2.43-2.1-3.21-3.72-.76-1.64-1.14-3.59-1.14-5.85s.38-4.2 1.14-5.82c.78-1.64 1.85-2.89 3.21-3.75 1.36-.86 2.91-1.29 4.65-1.29 1.74 0 3.29.43 4.65 1.29 1.36.86 2.42 2.11 3.18 3.75.78 1.62 1.17 3.56 1.17 5.82 0 2.26-.39 4.21-1.17 5.85-.76 1.62-1.82 2.86-3.18 3.72-1.36.86-2.91 1.29-4.65 1.29zm0-4.11c1.28 0 2.28-.55 3-1.65.74-1.1 1.11-2.8 1.11-5.1s-.37-4-1.11-5.1c-.72-1.1-1.72-1.65-3-1.65-1.26 0-2.26.55-3 1.65-.72 1.1-1.08 2.8-1.08 5.1s.36 4 1.08 5.1c.74 1.1 1.74 1.65 3 1.65zm26.876-.21v3.96h-15.87v-3.15l8.1-7.65c.86-.82 1.44-1.52 1.74-2.1.3-.6.45-1.19.45-1.77 0-.84-.29-1.48-.87-1.92-.56-.46-1.39-.69-2.49-.69-.92 0-1.75.18-2.49.54-.74.34-1.36.86-1.86 1.56l-3.54-2.28c.82-1.22 1.95-2.17 3.39-2.85 1.44-.7 3.09-1.05 4.95-1.05 1.56 0 2.92.26 4.08.78 1.18.5 2.09 1.22 2.73 2.16.66.92.99 2.01.99 3.27 0 1.14-.24 2.21-.72 3.21s-1.41 2.14-2.79 3.42l-4.83 4.56h9.03z" fill="#fff"/><path d="M2.137 42c0-20.987 17.013-38 38-38 20.986 0 38 17.013 38 38s-17.014 38-38 38c-20.987 0-38-17.013-38-38z" stroke="#6CA3CB" stroke-width="4"/><path d="M48.496 5.076c11.086 2.65 19.906 9.827 24.97 19.101" stroke="#fff" stroke-width="10"/></symbol><symbol id="step3"><path d="M32.196 50.86c-1.74 0-3.29-.43-4.65-1.29-1.36-.86-2.43-2.1-3.21-3.72-.76-1.64-1.14-3.59-1.14-5.85s.38-4.2 1.14-5.82c.78-1.64 1.85-2.89 3.21-3.75 1.36-.86 2.91-1.29 4.65-1.29 1.74 0 3.29.43 4.65 1.29 1.36.86 2.42 2.11 3.18 3.75.78 1.62 1.17 3.56 1.17 5.82 0 2.26-.39 4.21-1.17 5.85-.76 1.62-1.82 2.86-3.18 3.72-1.36.86-2.91 1.29-4.65 1.29zm0-4.11c1.28 0 2.28-.55 3-1.65.74-1.1 1.11-2.8 1.11-5.1s-.37-4-1.11-5.1c-.72-1.1-1.72-1.65-3-1.65-1.26 0-2.26.55-3 1.65-.72 1.1-1.08 2.8-1.08 5.1s.36 4 1.08 5.1c.74 1.1 1.74 1.65 3 1.65zm20.879-8.7c1.84.3 3.25.99 4.23 2.07.98 1.06 1.47 2.38 1.47 3.96 0 1.22-.32 2.35-.96 3.39-.64 1.02-1.62 1.84-2.94 2.46-1.3.62-2.9.93-4.8.93-1.48 0-2.94-.19-4.38-.57-1.42-.4-2.63-.96-3.63-1.68l1.89-3.72c.8.6 1.72 1.07 2.76 1.41 1.06.32 2.14.48 3.24.48 1.22 0 2.18-.23 2.88-.69.7-.48 1.05-1.15 1.05-2.01 0-1.72-1.31-2.58-3.93-2.58h-2.22v-3.21l4.32-4.89h-8.94v-3.9h14.7v3.15l-4.74 5.4z" fill="#fff"/><path d="M2.938 40c0-20.987 17.013-38 38-38 20.986 0 38 17.013 38 38s-17.014 38-38 38c-20.987 0-38-17.013-38-38z" stroke="#6CA3CB" stroke-width="4"/><path d="M66.269 68.419c-8.599 7.483-19.564 10.491-30.054 9.223" stroke="#fff" stroke-width="10"/></symbol></svg>