<svg width="23" height="30" viewBox="0 0 23 30" fill="none" xmlns="http://www.w3.org/2000/svg">
<path d="M20.9939 12.8C22.3939 14.8 22.8939 17.5 22.5939 20.1C21.7939 26.2 16.0939 30.5 9.89392 29.7C3.69392 28.9 -0.706083 23.2 0.0939168 17.1C0.393917 15.2 1.09392 13.4 2.19392 11.9C2.19392 11.9 1.89392 17.6 5.29392 18C6.79392 18.2 8.09392 17.2 8.29392 15.7C8.39392 15 8.19392 14.2 7.79392 13.7C4.69392 9.6 4.99392 7.7 5.09392 6.5C5.89392 0.8 11.5939 0 11.5939 0C10.9939 1.7 10.6939 5.8 14.6939 7.8C18.6939 9.8 19.8939 11.2 20.9939 12.8Z" fill="#FF6436"/>
</svg>
