<svg width="106" height="16" viewBox="0 0 106 16" fill="none" xmlns="http://www.w3.org/2000/svg">
<path fill-rule="evenodd" clip-rule="evenodd" d="M79.9 2.8C79.2 2.8 78.5 2.2 78.5 1.4C78.5 0.6 79.1 0 79.9 0C80.7 0 81.3 0.6 81.3 1.4C81.3 2.2 80.7 2.8 79.9 2.8ZM10.9 12.5H8.3V7.4H2.6V12.5H0V0.4H2.6V5.2H8.3V0.4H10.9V12.5ZM13.2 15.9L13.5 13.8C13.7 13.9 14 13.9 14.2 13.9C14.8 13.9 15.2 13.7 15.4 13.3L15.7 12.6L12.3 3.7H14.8L17.1 9.8L19.4 3.7H21.9L17.8 13.9C17.1 15.6 16 16 14.5 16C14.1 16 13.5 16 13.2 15.9ZM25.5 11.4C26.2 12.3 27.2 12.7 28.2 12.7C30.4 12.7 32.1 11 32.1 8.1C32.1 5.2 30.4 3.5 28.2 3.5C27.1 3.5 26.2 3.9 25.5 4.8V3.7H23.2V15.9H25.5V11.4ZM27.5 10.6C28.8 10.6 29.7 9.6 29.7 8C29.7 6.5 28.8 5.5 27.5 5.5C26.8 5.5 25.9 5.9 25.5 6.5V9.6C25.9 10.2 26.7 10.6 27.5 10.6ZM33.5 8.1C33.5 10.9 35.5 12.7 38.2 12.7C39.6 12.7 40.9 12.3 41.7 11.4L40.7 9.9C40.2 10.5 39.1 10.8 38.4 10.8C36.9 10.8 36 9.9 35.9 8.8H42.4V8.3C42.4 5.5 40.6 3.5 38 3.5C35.4 3.5 33.5 5.6 33.5 8.1ZM40.2 7.3C40.1 6.5 39.6 5.4 38 5.4C36.6 5.4 36 6.5 35.8 7.3H40.2ZM52.9 12.5H55.8L51.2 0.4H48L43.3 12.5H46.2L47 10.5H52.2L52.9 12.5ZM51.4 8.2L49.5 3L47.6 8.2H51.4ZM62.9 12.5H65.2V3.7H62.9V9.6C62.5 10.1 61.8 10.6 60.9 10.6C59.9 10.6 59.3 10.2 59.3 9V3.7H57V9.9C57 11.6 57.9 12.7 59.8 12.7C61.2 12.7 62.3 12.1 62.9 11.4V12.5ZM76.1 12.5H73.8V11.4C73.1 12.3 72.1 12.7 71.1 12.7C68.9 12.7 67.2 11 67.2 8.1C67.2 5.2 68.9 3.5 71.1 3.5C72.1 3.5 73.1 4 73.8 4.8V0.4H76.1V12.5ZM73.8 9.6C73.4 10.2 72.6 10.6 71.8 10.6C70.5 10.6 69.6 9.6 69.6 8.1C69.6 6.5 70.5 5.5 71.8 5.5C72.6 5.5 73.4 5.9 73.8 6.5V9.6ZM78.8 12.5H81.1V3.7H78.8V12.5ZM86.6 12.7C85 12.7 84.1 11.9 84.1 10.3V5.7H82.6V3.7H84.1V1.3H86.4V3.7H88.2V5.7H86.4V9.7C86.4 10.2 86.7 10.7 87.2 10.7C87.5 10.7 87.9 10.6 88 10.4L88.5 12.1C88.2 12.4 87.6 12.7 86.6 12.7ZM89.6 8.1C89.6 10.6 91.3 12.7 94.2 12.7C97.1 12.7 98.9 10.6 98.8 8.1C98.8 5.6 97.1 3.5 94.2 3.5C91.3 3.5 89.6 5.6 89.6 8.1ZM94.2 10.6C95.6 10.6 96.4 9.4 96.4 8C96.4 6.6 95.6 5.5 94.2 5.5C92.8 5.5 92 6.7 92 8C92 9.5 92.8 10.6 94.2 10.6ZM100.9 12.5H103.2V6.6C103.6 6 104.6 5.6 105.4 5.6C105.5 5.6 105.6 5.625 105.7 5.65C105.8 5.675 105.9 5.7 106 5.7V3.5C104.9 3.5 103.8 4.1 103.2 4.9V3.7H100.9V12.5Z" fill="#292A2B"/>
</svg>
