<svg width="104" height="23" viewBox="0 0 104 23" fill="none" xmlns="http://www.w3.org/2000/svg">
<path d="M18.1071 0.571427H4.17857C1.87165 0.571427 0 2.44308 0 4.75V18.6786C0 20.9855 1.87165 22.8571 4.17857 22.8571H11.8973V14.2243H8.99554V10.8583H11.8973V8.37723C11.8973 5.50446 13.6674 3.9375 16.2355 3.9375C17.4542 3.9375 18.5134 4.02455 18.8181 4.06808V7.07143L17.048 7.08594C15.6406 7.08594 15.3795 7.73884 15.3795 8.71094V10.8583H18.702L18.2667 14.2243H15.3795V22.8571H18.1071C20.4141 22.8571 22.2857 20.9855 22.2857 18.6786V4.75C22.2857 2.44308 20.4141 0.571427 18.1071 0.571427ZM59.3644 7.56473C58.9581 8.18862 58.4358 8.72545 57.841 9.1462C57.8555 9.27679 57.8555 9.40737 57.8555 9.53795C57.8555 13.5714 54.7796 18.2143 49.1791 18.2143C47.4526 18.2143 45.8566 17.7065 44.5073 16.8504C44.7394 16.8795 44.986 16.894 45.2327 16.894C46.6691 16.894 47.9749 16.4007 49.0195 15.5882C47.6847 15.5592 46.5675 14.6741 46.1758 13.4699C46.3644 13.4989 46.553 13.5279 46.7416 13.5279C47.0173 13.5279 47.2204 13.4844 47.4816 13.4118C46.0887 13.1362 44.9715 11.9029 44.9715 10.423C44.9715 10.4085 44.9715 10.394 44.9715 10.394C45.4358 10.6116 45.9146 10.7567 46.4224 10.7712C45.5954 10.2199 45.1021 9.29129 45.1021 8.23214C45.1021 7.6808 45.2617 7.14397 45.5229 6.6942C47.0318 8.55134 49.2807 9.75558 51.8198 9.88616C51.7617 9.66853 51.7472 9.42187 51.7472 9.18973C51.7472 7.5067 53.111 6.14286 54.7941 6.14286C55.6646 6.14286 56.4626 6.50558 57.014 7.10045C57.7104 6.96986 58.3633 6.7087 58.9581 6.36049C58.726 7.07143 58.2472 7.6808 57.6088 8.05804C58.2327 7.97098 58.8131 7.81138 59.3644 7.56473ZM63.0787 4.75C63.0787 2.44308 61.207 0.571427 58.9001 0.571427H44.9715C42.6646 0.571427 40.793 2.44308 40.793 4.75V18.6786C40.793 20.9855 42.6646 22.8571 44.9715 22.8571H58.9001C61.207 22.8571 63.0787 20.9855 63.0787 18.6786V4.75ZM96.4431 11.7143C96.4431 13.76 94.7746 15.4286 92.7288 15.4286C90.683 15.4286 89.0145 13.76 89.0145 11.7143C89.0145 9.66853 90.683 8 92.7288 8C94.7746 8 96.4431 9.66853 96.4431 11.7143ZM98.4453 11.7143C98.4453 8.55134 95.8917 5.99777 92.7288 5.99777C89.5658 5.99777 87.0123 8.55134 87.0123 11.7143C87.0123 14.8772 89.5658 17.4308 92.7288 17.4308C95.8917 17.4308 98.4453 14.8772 98.4453 11.7143ZM100.012 5.76562C100.012 5.02567 99.4174 4.4308 98.6775 4.4308C97.9375 4.4308 97.3426 5.02567 97.3426 5.76562C97.3426 6.50558 97.9375 7.10045 98.6775 7.10045C99.4174 7.10045 100.012 6.50558 100.012 5.76562ZM92.7288 2.57366C94.3538 2.57366 97.8359 2.44308 99.3013 3.02344C99.8092 3.22656 100.186 3.47321 100.578 3.86495C100.97 4.2567 101.217 4.63393 101.42 5.14174C102 6.60714 101.869 10.0893 101.869 11.7143C101.869 13.3393 102 16.8214 101.42 18.2868C101.217 18.7946 100.97 19.1719 100.578 19.5636C100.186 19.9554 99.8092 20.202 99.3013 20.4051C97.8359 20.9855 94.3538 20.8549 92.7288 20.8549C91.1038 20.8549 87.6217 20.9855 86.1563 20.4051C85.6484 20.202 85.2712 19.9554 84.8795 19.5636C84.4877 19.1719 84.2411 18.7946 84.0379 18.2868C83.4576 16.8214 83.5882 13.3393 83.5882 11.7143C83.5882 10.0893 83.4576 6.60714 84.0379 5.14174C84.2411 4.63393 84.4877 4.2567 84.8795 3.86495C85.2712 3.47321 85.6484 3.22656 86.1563 3.02344C87.6217 2.44308 91.1038 2.57366 92.7288 2.57366ZM103.872 11.7143C103.872 10.1763 103.886 8.6529 103.799 7.11495C103.712 5.33036 103.306 3.74888 102 2.44308C100.694 1.13728 99.1127 0.731025 97.3281 0.643973C95.7902 0.556919 94.2667 0.571427 92.7288 0.571427C91.1908 0.571427 89.6674 0.556919 88.1295 0.643973C86.3449 0.731025 84.7634 1.13728 83.4576 2.44308C82.1518 3.74888 81.7455 5.33036 81.6585 7.11495C81.5714 8.6529 81.5859 10.1763 81.5859 11.7143C81.5859 13.2522 81.5714 14.7757 81.6585 16.3136C81.7455 18.0982 82.1518 19.6797 83.4576 20.9855C84.7634 22.2913 86.3449 22.6975 88.1295 22.7846C89.6674 22.8717 91.1908 22.8571 92.7288 22.8571C94.2667 22.8571 95.7902 22.8717 97.3281 22.7846C99.1127 22.6975 100.694 22.2913 102 20.9855C103.306 19.6797 103.712 18.0982 103.799 16.3136C103.886 14.7757 103.872 13.2522 103.872 11.7143Z" fill="#86939E"/>
</svg>
